<?xml version="1.0" encoding="utf-8"?>
<!-- Generator: Adobe Illustrator 22.1.0, SVG Export Plug-In . SVG Version: 6.00 Build 0)  -->
<svg version="1.1" xmlns="http://www.w3.org/2000/svg" xmlns:xlink="http://www.w3.org/1999/xlink" x="0px" y="0px"
	 viewBox="0 0 1200 1200" style="enable-background:new 0 0 1200 1200;" xml:space="preserve">
<style type="text/css">
	.st0{display:none;}
	.st1{display:inline;}
	.st2{display:inline;fill:#FFFFFF;}
	.st3{display:inline;fill:none;stroke:#000000;stroke-miterlimit:10;}
	.st4{fill:#14AEB5;}
	.st5{fill:#FFFFFF;}
</style>
<g id="Layer_1" class="st0">
	<g transform="translate(0.000000,1200.000000) scale(0.100000,-0.100000)" class="st1">
	</g>
</g>
<g id="Layer_2" class="st0">
	
		<image style="display:inline;overflow:visible;" width="1200" height="1200" xlink:href="effio logoset 8/logo_transparent.png"  transform="matrix(1 0 0 1 -47.9568 107)">
	</image>
	
		<image style="display:inline;overflow:visible;" width="1200" height="1200" xlink:href="effio logoset 8/logo_transparent.png"  transform="matrix(1 0 0 1 -47.9568 103)">
	</image>
	
		<rect x="650.3" y="377.6" transform="matrix(0.9065 0.4223 -0.4223 0.9065 320.3184 -220.692)" class="st2" width="16" height="470.2"/>
</g>
<g id="Layer_3" class="st0">
	<line class="st3" x1="405.3" y1="392" x2="511.8" y2="348.3"/>
	<line class="st3" x1="405.3" y1="392" x2="377.3" y2="462"/>
	<line class="st3" x1="377.3" y1="462" x2="461" y2="563"/>
	<line class="st3" x1="542.3" y1="392" x2="461" y2="563"/>
	<line class="st3" x1="511.3" y1="347.3" x2="542.3" y2="392"/>
</g>
<g id="Layer_4" class="st0">
	<g class="st1">
		<line class="st4" x1="405.6" y1="392.5" x2="344.2" y2="542.1"/>
		<line class="st4" x1="553" y1="331.1" x2="405.6" y2="392.5"/>
		<line class="st4" x1="700.6" y1="394.1" x2="553" y2="331.1"/>
		<line class="st4" x1="762" y1="544.2" x2="700.6" y2="394.1"/>
		<line class="st4" x1="701" y1="692.2" x2="762" y2="544.2"/>
		<line class="st4" x1="553" y1="754.7" x2="701" y2="692.2"/>
		<line class="st4" x1="403.3" y1="689" x2="553" y2="754.7"/>
		<line class="st4" x1="344.2" y1="542.1" x2="403.3" y2="689"/>
	</g>
</g>
<g id="Layer_5">
	<polygon class="st4" points="551.6,332.3 402.8,394.5 341.4,543.4 403.4,691.7 552.4,752.6 701.3,690.4 762.7,541.5 700.7,393.2 	
		"/>
</g>
<g id="Layer_6">
	
		<rect x="700.3" y="504.8" transform="matrix(0.8857 0.4643 -0.4643 0.8857 366.3672 -256.2084)" class="st5" width="6.3" height="222.2"/>
	
		<rect x="550.9" y="348.6" transform="matrix(0.8766 0.4812 -0.4812 0.8766 344.0518 -195.9373)" class="st5" width="6.4" height="448.4"/>
	
		<rect x="485.6" y="320.6" transform="matrix(0.9065 0.4223 -0.4223 0.9065 263.6155 -158.1774)" class="st5" width="6.5" height="390.8"/>
	
		<rect x="483.5" y="419.1" transform="matrix(-0.7692 0.639 -0.639 -0.7692 1242.9666 745.4572)" class="st5" width="6.8" height="356.2"/>
	
		<rect x="619" y="314.4" transform="matrix(0.8331 -0.5531 0.5531 0.8331 -169.7 426.6974)" class="st5" width="6.4" height="360.3"/>
</g>
<g id="Layer_7">
</g>
</svg>
